<svg id="Layer_1" data-name="Layer 1" xmlns="http://www.w3.org/2000/svg" viewBox="0 0 1229.42 506.12"><defs><style>.cls-1{font-size:111px;font-family:ASoraya, A Soraya;}.cls-1,.cls-3{fill:#ba8d38;}.cls-2{fill:#1d1d1b;}</style></defs><text x="-345.29" y="-285.41"/><text class="cls-1" transform="matrix(0.99, -0.13, 0.13, 0.99, 173.46, 293.37)">كقيرط و </text><path class="cls-2" d="M977.84,400.42q28.53-4.11,31.91-11.19-4.74-8.72-7.89-12.28-4.75-5.26-13.27-13.31-10.22-9.66-13.46-13-1.08-1.11-1.5-5.1a38.83,38.83,0,0,1,.09-7.45,32,32,0,0,1,.55-3.63c.56-2.59,1.26-4.21,2.08-4.87q3.42-3,33.91-26.76,1.74-1.33,2.62,2.76a29.78,29.78,0,0,1,.56,5,37.19,37.19,0,0,1-.79,8.37c-.59,2.66-1.28,4.29-2.08,4.87q-13.3,10.38-21.47,16.83c.84.8,1.74,1.65,2.7,2.54q8.7,8.24,13.55,13.76,7,8,9.88,14.47,5.6,12.81.81,27.62-2.61,8.22-11.38,12.14-9.9,4.06-27.37,6.31l-35.61,4.79q-22.53,2-30.75-10.69-5.11-9.64.88-25.16a32.51,32.51,0,0,1,8.44-12.89q2.44-2.19,3.46-1.51c.8.52.81,1.79,0,3.83q-2.43,6.28-2.24,10.58a17.57,17.57,0,0,0,2.57,8.95q5.38,7.92,16,8.56a84.53,84.53,0,0,0,14.27-.44l23.47-3.16Z" transform="translate(-345.29 -285.41)"/><path class="cls-2" d="M1049.72,306.73q2.16,16.06-5.14,17a4.87,4.87,0,0,1-4-1.15q-1.62,5.79-5.92,6.37-5.64.76-6.67-6.86a28.7,28.7,0,0,1,0-6.45l5.1-1.51a19.42,19.42,0,0,0-.42,5.86c.2,1.46.74,2.14,1.64,2q2.58-.35,2.23-9.82l5.15-2.39c.07,1.31.17,2.44.3,3.41.33,2.51.91,3.7,1.74,3.59,1.21-.16,1.85-1,1.91-2.44,0-.22-.14-2.08-.42-5.58Z" transform="translate(-345.29 -285.41)"/><path class="cls-2" d="M1070.59,405a46,46,0,0,1-5.85,17q-8,13.42-31.48,28.24-3,1.88-3.18-7.83a33.24,33.24,0,0,1,.79-8.31c.61-2.78,1.29-4.42,2-4.92q9.63-6.06,14.92-10.21a79.75,79.75,0,0,0,7.49-6.53q2-2,3.4-3.63c.53-.66,1.18-1.49,2-2.51A152,152,0,0,1,1045,407.9q-15.94.12-19.9-10.94-3.07-8.67-1.65-22,1.2-11.37,5.46-17.58,4.71-6.81,11.31-7.75a12.43,12.43,0,0,1,10.84,2.91q1.93,1.38,7.67,7.83c1.3,1.51,2.48,3,3.56,4.55a73.68,73.68,0,0,1,4.61,8.24,41.64,41.64,0,0,1,4,14.72l6-.8,2.25,16.76ZM1045.78,368q-6.13-2.09-10.75,1.82a14.84,14.84,0,0,0-4,5.57q-1.55,10.49,8.11,11.92,6.18,1.25,21.29-.24Q1051.38,369.86,1045.78,368Z" transform="translate(-345.29 -285.41)"/><path class="cls-2" d="M1075.43,387.23l30.35-4.08q4.71-.73,6.18-1.16a20.71,20.71,0,0,0,6.87-3.05,99.68,99.68,0,0,0,9.11-7,30.23,30.23,0,0,1-8.31-4.08q-4.26-3.19-6.88-4.81-8.71-5.38-14.64-4.7a13,13,0,0,0-5.1,1.45,15.08,15.08,0,0,0-4.86,4.54,31,31,0,0,1-5,5.92c-1.67,1.46-2.83,2-3.51,1.56s-.67-1.73,0-3.83a29,29,0,0,1,3.51-6.87q11.68-17.93,22.59-20.7,7.5-1.93,16.42,3,1.47.78,15.78,10.78,4.46,3.12,15,6.9,2.71.24-1.73,8.27a37.36,37.36,0,0,1-4.88,6.83c-2,2.16-3.4,3.31-4.3,3.43a25,25,0,0,0-16.29,4.92q-3.3,2.64-5.46,4.51-4.26,3.69-7.26,5.79-7.23,5.24-18.32,6.89l-17,2.29Zm33,33.57c-1.1-.36-.91-2.16.59-5.38a41,41,0,0,1,3-5.32,28.6,28.6,0,0,1,4.94-6c1.47-1.29,2.62-1.79,3.46-1.51a35.36,35.36,0,0,1,12.4,7.2c.66.56.66,1.82,0,3.77a30.61,30.61,0,0,1-3.5,6.92,30,30,0,0,1-5,6q-2.6,2.26-3.46,1.5A35.1,35.1,0,0,0,1108.43,420.8Z" transform="translate(-345.29 -285.41)"/><path d="M1499.36,416a23.28,23.28,0,1,0,14.57-29.42A23.44,23.44,0,0,0,1499.36,416Zm40.05-15.12-11.6,3.91a7.36,7.36,0,0,0-1.72-2l5.41-10.93A19.48,19.48,0,0,1,1539.41,400.89Zm.18,14.95-10.95-5.42a7.09,7.09,0,0,0,.19-2.6l11.59-3.91A19.61,19.61,0,0,1,1539.59,415.84Zm-14.32-.83a7.39,7.39,0,0,0,2-1.73l10.94,5.42a19.44,19.44,0,0,1-9,7.9Zm-8.56-25.37a19.58,19.58,0,0,1,11.94.85l-5.42,10.94a7.32,7.32,0,0,0-2.6-.2Zm.9,12.61a7.39,7.39,0,0,0-2,1.73l-10.93-5.41a19.53,19.53,0,0,1,9-7.91Zm-3.38,24.52,5.42-10.94a7.09,7.09,0,0,0,2.6.19l3.92,11.6A19.5,19.5,0,0,1,1514.23,426.77Zm-10.75-10.4,11.59-3.91a7.54,7.54,0,0,0,1.72,2l-5.41,10.93A19.46,19.46,0,0,1,1503.48,416.37Zm-1-3a19.48,19.48,0,0,1,.85-11.93l10.93,5.42a7.32,7.32,0,0,0-.19,2.6Z" transform="translate(-345.29 -285.41)"/><path d="M1350.41,373.81c21.16-8.71,42.15-7.77,63.43-3.06h0l.09,0c1.81.4,3.63.82,5.44,1.28l11.66,2.74-9.66.53-1.67.51c-1.33,3.25-.1,6.42,2,9.58L1366,401l18.54,40.5Q1367.48,407.65,1350.41,373.81Z" transform="translate(-345.29 -285.41)"/><path d="M1292.66,423.57l-28.61,9.65c3.48-9,14.61-23.45,22-29.2Z" transform="translate(-345.29 -285.41)"/><path d="M1477.63,392a62.71,62.71,0,0,0,1.45,29.75q-162.18,56.94-162.62,55.73t154-58.05a120.64,120.64,0,0,1-.63-30.27l-45.44,14.33,56-21A58.29,58.29,0,0,0,1477.63,392Z" transform="translate(-345.29 -285.41)"/><path d="M1397.6,360.76a36.84,36.84,0,0,1,4.61-1.15l3.37.3a367.6,367.6,0,0,1,54.24,9.22c-5.44,3-10.84,4.45-17.06,3.22-15.56-3.06-32.14-7.47-49.2-9.1l-1.54-.14A35.78,35.78,0,0,1,1397.6,360.76Z" transform="translate(-345.29 -285.41)"/><path d="M1572.66,370.47c-3,.66-9.37.61-19.27.54-.67,0-1.47,0-2.54-.12-5.24-.52-8-2.47-11.61-3.85-7.08-2.75-11.9-1.24-12-2.36-.19-1.49,8.33-4.05,15.66-5.29a76.22,76.22,0,0,1,15.27-1,106.41,106.41,0,0,1,12.77,6.83c3.71,2.47,3.93,3.6,3.77,4.12S1573.85,370.21,1572.66,370.47Z" transform="translate(-345.29 -285.41)"/><path d="M1532.46,436.81l-.57.21,3.08-1.55Z" transform="translate(-345.29 -285.41)"/><path d="M1254.17,498.73a23.28,23.28,0,1,0,14.58-29.42A23.45,23.45,0,0,0,1254.17,498.73Zm40-15.12-11.59,3.91a7.39,7.39,0,0,0-1.73-2l5.42-10.93A19.4,19.4,0,0,1,1294.22,483.61Zm.18,14.95-10.94-5.42a7.55,7.55,0,0,0,.19-2.6l11.58-3.91A19.54,19.54,0,0,1,1294.4,498.56Zm-14.31-.83a7.39,7.39,0,0,0,2-1.73l10.94,5.42a19.49,19.49,0,0,1-9,7.9Zm-8.56-25.37a19.55,19.55,0,0,1,11.93.85L1278,484.15a7.09,7.09,0,0,0-2.6-.19Zm.89,12.61a7.53,7.53,0,0,0-2,1.73l-10.93-5.41a19.45,19.45,0,0,1,9-7.91ZM1269,509.49l5.42-10.94a7.36,7.36,0,0,0,2.61.2l3.91,11.59A19.43,19.43,0,0,1,1269,509.49Zm-10.75-10.4,11.59-3.91a7.39,7.39,0,0,0,1.73,2l-5.42,10.93A19.52,19.52,0,0,1,1258.29,499.09Zm-1-3a19.56,19.56,0,0,1,.85-11.93l10.93,5.42a7.55,7.55,0,0,0-.19,2.6Z" transform="translate(-345.29 -285.41)"/><rect x="1373.37" y="401.86" width="19.3" height="4.89" rx="2.05" transform="translate(-401.97 177.92) rotate(-18.64)"/><rect x="1300.38" y="425.8" width="19.3" height="4.89" rx="2.05" transform="translate(-413.45 155.85) rotate(-18.64)"/><path d="M1301.05,425.13l-1.23-3.65-7.62-22.61c9.85-7.24,20.75-12.48,32.14-16.74,4-1.5,8.05-2.81,12.25-4.19l9.77,29-45.43,14.23Z" transform="translate(-345.29 -285.41)"/><path d="M1196.83,481.67c-.26-.92-.5-1.84-.74-2.76a5.21,5.21,0,0,0-.6-3.59,3.5,3.5,0,0,0-.43-.55c-.78-.81-1.83-1.07-3.45-2.27a14.61,14.61,0,0,1-3.15-3.24c1.84-.29,3.58-.55,5.21-.78,19.28-2.75,24.16-1.6,24.71.16.69,2.23-5.17,7-10.08,9.42-1.82.9-3.68,1.57-5.47,2.25a33.72,33.72,0,0,0-5.58,3.42,9.68,9.68,0,0,0-2.17,2,10.18,10.18,0,0,0-1.66,7.05,8.74,8.74,0,0,1-.71-3.53C1192.77,485.64,1195.23,483,1196.83,481.67Z" transform="translate(-345.29 -285.41)"/><path class="cls-3" d="M1176.93,503.52C601.2,796,270.8,610.34,500.16,487.78,324.51,676.73,789.52,693.59,1176.93,503.52Z" transform="translate(-345.29 -285.41)"/><path class="cls-3" d="M967.41,621.67C629,785,286.71,729.88,400.81,552.82,355.56,702.33,617.22,751.52,967.41,621.67Z" transform="translate(-345.29 -285.41)"/><path class="cls-3" d="M1223.81,521.66c-544.38,409.76-998.83,288.71-849.9,59C270.71,802.29,747.67,842,1223.81,521.66Z" transform="translate(-345.29 -285.41)"/><path class="cls-2" d="M940.24,372.93a9.66,9.66,0,0,1-1.9-6.13,32.48,32.48,0,0,1,3-12.84q3.63-8.46,11.38-11.17a22.27,22.27,0,0,1,4.12-1.13,34.81,34.81,0,0,1,6.83.32q1.62.16-.06,6.12A20.44,20.44,0,0,1,962,352c-.62.94-1.14,1.37-1.58,1.3a25.71,25.71,0,0,0-8.15.19,15.57,15.57,0,0,0-6.15,2.57,20,20,0,0,0-2,1.74,5.32,5.32,0,0,0-1.11,1.43,1,1,0,0,0,0,.68,6.72,6.72,0,0,0,3.8,4.55,10.84,10.84,0,0,0,6.45,1.19,39.82,39.82,0,0,0,7.85-2.33c.08-.07.13-.1.17-.1l9.05-4.12c.68-.33,1,.27,1,1.79a11.18,11.18,0,0,1-.33,2.65,17.16,17.16,0,0,1-1.46,4.39c-.58,1.3-1.12,2.06-1.63,2.28l-33.87,15.61c-.72.32-1.08-.28-1.08-1.79.07-.91.18-1.83.32-2.77a17.83,17.83,0,0,1,1.46-4.28c.29-.61.51-1.05.66-1.3a2.23,2.23,0,0,1,1.08-1Z" transform="translate(-345.29 -285.41)"/><path class="cls-3" d="M569.47,523.85a9.71,9.71,0,0,1-1.9-6.12,32.7,32.7,0,0,1,3-12.85q3.63-8.46,11.38-11.16a23.38,23.38,0,0,1,4.12-1.14,34.79,34.79,0,0,1,6.83.32q1.62.17-.06,6.13a20,20,0,0,1-1.62,3.9c-.62.94-1.14,1.37-1.57,1.3a25.76,25.76,0,0,0-8.16.19,15.85,15.85,0,0,0-6.15,2.57,22.76,22.76,0,0,0-2,1.74,5.31,5.31,0,0,0-1.11,1.44.92.92,0,0,0,0,.67,6.68,6.68,0,0,0,3.79,4.55,10.87,10.87,0,0,0,6.45,1.2,40.59,40.59,0,0,0,7.86-2.33c.07-.08.12-.11.16-.11l9-4.12c.69-.33,1,.27,1,1.79a11.18,11.18,0,0,1-.33,2.65,17.16,17.16,0,0,1-1.46,4.39q-.87,1.95-1.62,2.28l-33.88,15.61c-.72.32-1.08-.27-1.08-1.79.07-.9.18-1.82.32-2.76a17.78,17.78,0,0,1,1.47-4.29c.29-.61.5-1,.65-1.3a2.23,2.23,0,0,1,1.08-1Z" transform="translate(-345.29 -285.41)"/></svg>