<svg id="Layer_1" data-name="Layer 1" xmlns="http://www.w3.org/2000/svg" viewBox="0 0 1270.3 573.51"><defs><style>.cls-1,.cls-2{fill:#ba8d38;}.cls-2{font-size:114.69px;font-family:ASoraya, A Soraya;}.cls-3{fill:#1d1d1b;}</style></defs><path d="M1562.87,384.22a24.05,24.05,0,1,0,15.05-30.39A24.21,24.21,0,0,0,1562.87,384.22Zm41.37-15.63-12,4.05a7.76,7.76,0,0,0-1.79-2l5.6-11.29A20.06,20.06,0,0,1,1604.24,368.59Zm.19,15.46-11.3-5.6a7.87,7.87,0,0,0,.19-2.7l12-4A20.22,20.22,0,0,1,1604.43,384.05Zm-14.79-.87a7.55,7.55,0,0,0,2-1.78L1603,387a20,20,0,0,1-9.29,8.16ZM1580.8,357a20.15,20.15,0,0,1,12.33.89l-5.6,11.29a7.83,7.83,0,0,0-2.69-.2Zm.92,13a7.66,7.66,0,0,0-2,1.78l-11.29-5.59a20.21,20.21,0,0,1,9.27-8.18Zm-3.49,25.33,5.6-11.3a7.83,7.83,0,0,0,2.69.2l4,12A20.15,20.15,0,0,1,1578.23,395.34Zm-11.11-10.75,12-4a7.55,7.55,0,0,0,1.78,2l-5.6,11.29A20.15,20.15,0,0,1,1567.12,384.59Zm-1-3.12a20.12,20.12,0,0,1,.88-12.32l11.29,5.59a7.83,7.83,0,0,0-.2,2.69Z" transform="translate(-370.42 -227.91)"/><path d="M1409,340.62c21.85-9,43.55-8,65.54-3.17h0l.09,0q2.81.63,5.62,1.32l12,2.84-10,.55-1.73.53c-1.37,3.35-.11,6.63,2,9.89l-57.52,16.08,19.16,41.85Z" transform="translate(-370.42 -227.91)"/><path d="M1349.29,392l-29.56,10c3.6-9.33,15.1-24.24,22.75-30.18Z" transform="translate(-370.42 -227.91)"/><path d="M1540.42,359.41a64.5,64.5,0,0,0,1.5,30.74q-167.58,58.83-168,57.59t159.13-60a124.39,124.39,0,0,1-.65-31.28l-46.95,14.81,57.86-21.71A61,61,0,0,0,1540.42,359.41Z" transform="translate(-370.42 -227.91)"/><path d="M1457.72,327.14a35.13,35.13,0,0,1,4.76-1.19l3.49.3a380.1,380.1,0,0,1,56,9.53c-5.62,3.14-11.2,4.6-17.62,3.33-16.08-3.17-33.21-7.72-50.84-9.41l-1.59-.14A36.34,36.34,0,0,1,1457.72,327.14Z" transform="translate(-370.42 -227.91)"/><path d="M1638.6,337.17c-3.11.68-9.67.63-19.91.55-.68,0-1.52,0-2.62-.13-5.42-.53-8.32-2.54-12-4-7.32-2.84-12.3-1.28-12.45-2.44-.2-1.54,8.61-4.18,16.18-5.46a78,78,0,0,1,15.78-1.05,107.75,107.75,0,0,1,13.2,7.06c3.83,2.54,4.06,3.71,3.9,4.25S1639.83,336.9,1638.6,337.17Z" transform="translate(-370.42 -227.91)"/><path d="M1597.07,405.71l-.59.22,3.18-1.6Z" transform="translate(-370.42 -227.91)"/><path d="M1309.53,469.7a24.06,24.06,0,1,0,15.06-30.4A24.22,24.22,0,0,0,1309.53,469.7Zm41.38-15.63-12,4a7.58,7.58,0,0,0-1.79-2l5.6-11.29A20.11,20.11,0,0,1,1350.91,454.07Zm.18,15.45-11.3-5.6a7.59,7.59,0,0,0,.19-2.69l12-4A20.22,20.22,0,0,1,1351.09,469.52Zm-14.79-.87a7.55,7.55,0,0,0,2-1.78l11.3,5.6a20,20,0,0,1-9.28,8.16Zm-8.84-26.21a20.15,20.15,0,0,1,12.33.89l-5.6,11.29a7.79,7.79,0,0,0-2.69-.2Zm.92,13a7.66,7.66,0,0,0-2,1.78l-11.29-5.59a20.21,20.21,0,0,1,9.27-8.18Zm-3.49,25.33,5.6-11.3a7.83,7.83,0,0,0,2.69.2l4,12A20.18,20.18,0,0,1,1324.89,480.81Zm-11.11-10.75,12-4a7.55,7.55,0,0,0,1.78,2l-5.6,11.29A20.15,20.15,0,0,1,1313.78,470.06Zm-1-3.12a20.12,20.12,0,0,1,.88-12.32l11.29,5.6a7.52,7.52,0,0,0-.19,2.68Z" transform="translate(-370.42 -227.91)"/><rect x="1432.68" y="369.6" width="19.94" height="5.05" rx="2.12" transform="translate(-413.68 252.8) rotate(-18.64)"/><rect x="1357.27" y="394.33" width="19.94" height="5.05" rx="2.12" transform="translate(-425.55 229.99) rotate(-18.64)"/><path d="M1358,393.64l-1.27-3.77-7.88-23.36c10.18-7.48,21.44-12.89,33.21-17.3,4.12-1.54,8.32-2.9,12.66-4.33l10.09,29.93-47,14.7Z" transform="translate(-370.42 -227.91)"/><path d="M1250.27,452.06c-.26-.95-.51-1.9-.76-2.85a5.48,5.48,0,0,0-.61-3.71,3.24,3.24,0,0,0-.45-.56c-.81-.84-1.9-1.11-3.56-2.35a15.16,15.16,0,0,1-3.26-3.35q2.85-.45,5.39-.81c19.91-2.84,25-1.65,25.52.17.72,2.3-5.34,7.22-10.41,9.73a58.3,58.3,0,0,1-5.66,2.33,35.33,35.33,0,0,0-5.76,3.53,10.32,10.32,0,0,0-2.24,2.12,10.53,10.53,0,0,0-1.72,7.29A9.13,9.13,0,0,1,1246,460C1246.08,456.17,1248.62,453.44,1250.27,452.06Z" transform="translate(-370.42 -227.91)"/><path d="M1225.4,464.42l85.38,32.75C932.66,743.64,579.41,894,411.14,737.55c-35.38-32.9-48.44-85.72-32.95-133.15,24.77-75.82,76-114.12,166.23-153.09C392.63,628.91,778.27,633.33,1225.4,464.42Z" transform="translate(-370.42 -227.91)"/><path class="cls-1" d="M1226.59,474.64C631.72,776.81,290.34,585,527.32,458.38,345.83,653.61,826.3,671,1226.59,474.64Z" transform="translate(-370.42 -227.91)"/><path class="cls-1" d="M1010.11,596.72c-349.64,168.72-703.34,111.8-585.44-71.15C377.91,680.06,648.27,730.88,1010.11,596.72Z" transform="translate(-370.42 -227.91)"/><path class="cls-1" d="M1278.15,493.39c-562.48,423.38-1032,298.31-878.15,61C293.36,783.34,786.18,824.34,1278.15,493.39Z" transform="translate(-370.42 -227.91)"/><rect x="276.43" y="374.29" width="9.39" height="175.03"/><rect x="723.64" y="597.19" width="9.39" height="175.03" transform="translate(-435.4 -151.43) rotate(-5.75)"/><rect x="788.97" y="581.49" width="9.39" height="175.03" transform="translate(-468.41 -90.34) rotate(-9.33)"/><rect x="841.71" y="583.26" width="8.11" height="151.12" transform="translate(-492.95 -29.29) rotate(-12.5)"/><rect x="865.65" y="574.04" width="8.11" height="151.12" transform="translate(-490.38 -24.33) rotate(-12.5)"/><rect x="888.21" y="576.76" width="7.04" height="131.23" transform="translate(-488.3 -19.73) rotate(-12.5)"/><text x="-370.42" y="-227.91"/><text class="cls-2" transform="matrix(0.99, -0.13, 0.13, 0.99, 198.79, 303.12)">كقيرط و </text><path class="cls-3" d="M1043.57,346.74q29.49-4.25,33-11.55-4.87-9-8.15-12.7-4.91-5.43-13.71-13.75-10.56-10-13.9-13.44-1.12-1.14-1.56-5.27a39.84,39.84,0,0,1,.1-7.7,34.16,34.16,0,0,1,.56-3.75c.59-2.67,1.3-4.35,2.15-5q3.54-3.07,35-27.65,1.8-1.38,2.71,2.85a30.65,30.65,0,0,1,.58,5.18,38.42,38.42,0,0,1-.82,8.64q-.91,4.14-2.14,5-13.77,10.71-22.19,17.39c.87.82,1.79,1.7,2.78,2.62q9,8.5,14,14.22,7.27,8.28,10.2,15,5.79,13.24.85,28.54-2.7,8.49-11.76,12.54-10.23,4.2-28.28,6.52l-36.8,4.95q-23.28,2.12-31.77-11-5.3-10,.91-26A33.62,33.62,0,0,1,984.07,319q2.52-2.26,3.58-1.56,1.23.79,0,3.95-2.52,6.51-2.32,10.94a18.19,18.19,0,0,0,2.66,9.25q5.57,8.18,16.56,8.84a88.1,88.1,0,0,0,14.74-.45l24.25-3.27Z" transform="translate(-370.42 -227.91)"/><path class="cls-3" d="M1117.85,249.94q2.24,16.59-5.32,17.61a5,5,0,0,1-4.17-1.19q-1.68,6-6.12,6.58-5.84.78-6.89-7.09a29.94,29.94,0,0,1,0-6.66l5.27-1.56a20.42,20.42,0,0,0-.43,6.05c.21,1.51.77,2.21,1.7,2.08,1.78-.24,2.54-3.62,2.31-10.14l5.32-2.47c.06,1.35.16,2.52.3,3.52q.52,3.88,1.8,3.72c1.26-.17,1.92-1,2-2.53,0-.23-.14-2.15-.44-5.76Z" transform="translate(-370.42 -227.91)"/><path class="cls-3" d="M1139.41,351.42a47.48,47.48,0,0,1-6.05,17.6q-8.25,13.88-32.52,29.17-3.13,1.95-3.29-8.08a34.49,34.49,0,0,1,.82-8.59c.63-2.87,1.32-4.57,2.08-5.08a186.83,186.83,0,0,0,15.42-10.55,82.71,82.71,0,0,0,7.74-6.75q2-2,3.51-3.75c.55-.68,1.22-1.54,2-2.59a155.47,155.47,0,0,1-16.16,1.67q-16.49.12-20.56-11.31-3.18-8.94-1.71-22.76,1.24-11.76,5.64-18.17,4.88-7,11.69-8a12.83,12.83,0,0,1,11.2,3q2,1.41,7.92,8.08c1.34,1.56,2.57,3.12,3.69,4.71a75.56,75.56,0,0,1,4.76,8.51,43,43,0,0,1,4.13,15.21l6.17-.83,2.32,17.31Zm-25.64-38.14c-4.22-1.43-7.93-.8-11.1,1.89a15.27,15.27,0,0,0-4.09,5.75q-1.59,10.83,8.38,12.32,6.39,1.29,22-.25Q1119.56,315.16,1113.77,313.28Z" transform="translate(-370.42 -227.91)"/><path class="cls-3" d="M1144.41,333.12l31.35-4.22q4.88-.76,6.4-1.2a21.25,21.25,0,0,0,7.09-3.16,101.83,101.83,0,0,0,9.42-7.25,31.8,31.8,0,0,1-8.59-4.21q-4.41-3.31-7.11-5-9-5.57-15.12-4.86a13.48,13.48,0,0,0-5.28,1.5,15.83,15.83,0,0,0-5,4.69,31.57,31.57,0,0,1-5.17,6.12q-2.57,2.26-3.62,1.61c-.71-.47-.69-1.79,0-4a30,30,0,0,1,3.62-7.1q12.09-18.53,23.34-21.39,7.76-2,17,3.08,1.53.81,16.31,11.14,4.6,3.22,15.48,7.13,2.79.24-1.79,8.55a38.69,38.69,0,0,1-5,7.06q-3.06,3.35-4.44,3.53a25.94,25.94,0,0,0-16.83,5.09c-2.28,1.82-4.17,3.37-5.65,4.66a93.68,93.68,0,0,1-7.5,6q-7.47,5.42-18.93,7.13l-17.59,2.36Zm34.1,34.68c-1.14-.37-.94-2.23.61-5.56a42.58,42.58,0,0,1,3-5.5,29.66,29.66,0,0,1,5.11-6.16q2.26-2,3.57-1.56a36.32,36.32,0,0,1,12.81,7.43c.68.59.69,1.89,0,3.9a32.26,32.26,0,0,1-3.62,7.15,31.2,31.2,0,0,1-5.15,6.18c-1.79,1.56-3,2.07-3.58,1.55A36.32,36.32,0,0,0,1178.51,367.8Z" transform="translate(-370.42 -227.91)"/><path class="cls-3" d="M1004.89,319.14a10,10,0,0,1-2-6.33,33.58,33.58,0,0,1,3.13-13.27q3.75-8.75,11.76-11.54a23.7,23.7,0,0,1,4.26-1.17,36.42,36.42,0,0,1,7.05.33c1.12.11,1.11,2.22-.05,6.33a20.74,20.74,0,0,1-1.68,4c-.64,1-1.18,1.42-1.63,1.35a26.52,26.52,0,0,0-8.42.19,16.28,16.28,0,0,0-6.36,2.66,22.7,22.7,0,0,0-2.07,1.79,5.59,5.59,0,0,0-1.15,1.49,1.07,1.07,0,0,0,0,.7,7,7,0,0,0,3.92,4.7,11.27,11.27,0,0,0,6.67,1.23,42.06,42.06,0,0,0,8.12-2.4c.07-.08.13-.12.16-.12l9.36-4.25c.7-.34,1.06.28,1.06,1.85a11.42,11.42,0,0,1-.34,2.74,17.94,17.94,0,0,1-1.51,4.54c-.6,1.34-1.15,2.12-1.68,2.35l-35,16.13c-.74.33-1.12-.28-1.12-1.85.08-.94.19-1.89.34-2.86a18.41,18.41,0,0,1,1.51-4.42c.3-.64.52-1.09.67-1.35a2.37,2.37,0,0,1,1.12-1Z" transform="translate(-370.42 -227.91)"/><path class="cls-1" d="M620.51,476.7a10,10,0,0,1-2-6.33,33.58,33.58,0,0,1,3.13-13.27q3.75-8.73,11.76-11.54a23.7,23.7,0,0,1,4.26-1.17,36.42,36.42,0,0,1,7,.33q1.69.18,0,6.33a20.48,20.48,0,0,1-1.68,4c-.64,1-1.18,1.42-1.63,1.35a26.82,26.82,0,0,0-8.42.19,16.43,16.43,0,0,0-6.36,2.66,22.67,22.67,0,0,0-2.07,1.8,5.61,5.61,0,0,0-1.15,1.48,1.07,1.07,0,0,0,0,.7,7,7,0,0,0,3.92,4.7A11.28,11.28,0,0,0,634,469.2a42.34,42.34,0,0,0,8.12-2.41.27.27,0,0,1,.16-.11l9.36-4.26c.7-.34,1.06.28,1.06,1.85a11.42,11.42,0,0,1-.34,2.74,17.94,17.94,0,0,1-1.51,4.54c-.59,1.34-1.15,2.13-1.68,2.35l-35,16.13c-.74.33-1.12-.28-1.12-1.85.08-.93.19-1.89.34-2.86a18.41,18.41,0,0,1,1.51-4.42c.3-.63.52-1.08.67-1.34a2.34,2.34,0,0,1,1.12-1Z" transform="translate(-370.42 -227.91)"/></svg>